<svg xmlns="http://www.w3.org/2000/svg" xmlns:xlink="http://www.w3.org/1999/xlink" x="0" y="0" version="1.1" viewBox="0 0 83.33 70.83" style="enable-background:new 0 0 83.33 70.83" xml:space="preserve"><style type="text/css">.st0{filter:url(#Adobe_OpacityMaskFilter)}.st1{fill:#fff}.st2{mask:url(#SVGID_1_);enable-background:new}.st3,.st4{fill:#5d8fe8}.st4{opacity:.35}.st5{fill:#a5d180}.st6{opacity:.35;fill:#fff}</style><g id="图层_1"><g><defs><filter id="Adobe_OpacityMaskFilter" width="100" height="100" x="-8.33" y="-12.5" filterUnits="userSpaceOnUse"><feColorMatrix type="matrix" values="1 0 0 0 0 0 1 0 0 0 0 0 1 0 0 0 0 0 1 0"/></filter></defs><mask id="SVGID_1_" width="100" height="100" x="-8.33" y="-12.5" maskUnits="userSpaceOnUse"><g class="st0"><path d="M74.14,60.17H72.3v-5.84c0-1.38-1.12-2.5-2.5-2.5c-1.38,0-2.5,1.12-2.5,2.5v5.84h-1.84 c-1.11,0-1.73,1.27-1.06,2.15l4.34,5.65c0.53,0.7,1.58,0.7,2.12,0l4.34-5.65C75.87,61.44,75.24,60.17,74.14,60.17L74.14,60.17z M-8.33,87.5v-100h100v100H-8.33z" class="st1"/></g></mask><g class="st2"><g><path d="M12.5,12.5h58.33c1.47,0,2.86,0.3,4.17,0.77V12.5C75,5.6,69.4,0,62.5,0H20.83c-6.9,0-12.5,5.6-12.5,12.5 v0.77C9.64,12.8,11.03,12.5,12.5,12.5z" class="st3"/><path d="M45.23,40.79c0,3.18-1.7,6.12-4.45,7.71c-2.76,1.59-6.15,1.59-8.9,0c-2.76-1.59-4.45-4.53-4.45-7.71 c0-3.18,1.7-6.12,4.45-7.71c2.76-1.59,6.15-1.59,8.9,0C43.53,34.66,45.23,37.6,45.23,40.79z" class="st3"/><path d="M45.23,14.07c-3.94,0-7.12,3.19-7.12,7.12v21.37l7.12-1.78V24.76h3.56c3.94,0,7.12-3.19,7.12-7.12v-1.78 c0-0.98-0.8-1.78-1.78-1.78H45.23z" class="st3"/></g></g><path d="M70.83,70.83H12.5c-6.9,0-12.5-5.6-12.5-12.5V25c0-6.9,5.6-12.5,12.5-12.5h58.33c6.9,0,12.5,5.6,12.5,12.5 v33.33C83.33,65.24,77.74,70.83,70.83,70.83z" class="st4"/></g></g><g id="图层_2"><path d="M41.71,62.73c-2.9,0-5.8-0.51-8.01-1.54c-1.59-0.74-4.04-0.82-5.83-0.18l-3.83,1.37 c-1.54,0.55-3.72,0.4-4.88-0.33c-1.16-0.73-0.84-1.77,0.7-2.32l3.83-1.37c4.56-1.63,10.82-1.43,14.89,0.46 c1.76,0.82,4.51,0.82,6.27,0c4.07-1.89,10.33-2.09,14.89-0.46l3.83,1.37c1.54,0.55,1.86,1.59,0.7,2.32 c-1.16,0.74-3.34,0.88-4.88,0.33l-3.83-1.37c-1.79-0.64-4.24-0.56-5.83,0.18C47.51,62.22,44.61,62.73,41.71,62.73z" class="st5"/><path d="M41.71,69.37c-2.9,0-5.8-0.51-8.01-1.54c-1.59-0.74-4.04-0.82-5.83-0.18l-3.83,1.37 c-1.54,0.55-3.72,0.4-4.88-0.33c-1.16-0.73-0.84-1.77,0.7-2.32l3.83-1.37c4.56-1.63,10.82-1.43,14.89,0.46 c1.76,0.82,4.51,0.82,6.27,0c4.07-1.9,10.33-2.09,14.89-0.46l3.83,1.37c1.54,0.55,1.86,1.59,0.7,2.32 c-1.16,0.73-3.34,0.88-4.88,0.33l-3.83-1.37c-1.79-0.64-4.24-0.56-5.83,0.18C47.51,68.86,44.61,69.37,41.71,69.37z" class="st6"/><path d="M41.71,56.09c-2.9,0-5.8-0.51-8.01-1.54c-1.59-0.74-4.04-0.82-5.83-0.18l-3.83,1.37 c-1.54,0.55-3.72,0.4-4.88-0.33c-1.16-0.73-0.84-1.77,0.7-2.32l3.83-1.37c4.56-1.63,10.82-1.43,14.89,0.46 c1.76,0.82,4.51,0.82,6.27,0c4.07-1.89,10.33-2.09,14.89-0.46l3.83,1.37c1.54,0.55,1.86,1.59,0.7,2.32 c-1.16,0.73-3.34,0.88-4.88,0.33l-3.83-1.37c-1.79-0.64-4.24-0.56-5.83,0.18C47.51,55.58,44.61,56.09,41.71,56.09z" class="st6"/></g></svg>